<svg width="32" height="32" viewBox="0 0 32 32" fill="none" xmlns="http://www.w3.org/2000/svg">
<path d="M1.67708 4H21.3229C22.2487 4 23 5.0304 23 6.3V24.7C23 25.31 22.8233 25.895 22.5088 26.3263C22.1943 26.7577 21.7677 27 21.3229 27H1.67708C1.23229 27 0.80572 26.7577 0.491206 26.3263C0.176692 25.895 0 25.31 0 24.7L0 6.3C0 5.0304 0.751333 4 1.67708 4ZM1.4375 9.79863V24.7C1.4375 24.8814 1.54483 25.0286 1.67708 25.0286H21.3229C21.3865 25.0286 21.4474 24.994 21.4923 24.9323C21.5373 24.8707 21.5625 24.7871 21.5625 24.7V9.79863L12.4392 18.2534C11.8718 18.7791 11.1282 18.7791 10.5608 18.2534L1.4375 9.79863ZM1.4375 6.3V7.41977L11.3658 16.6198C11.4055 16.6565 11.4522 16.6761 11.5 16.6761C11.5478 16.6761 11.5945 16.6565 11.6342 16.6198L21.5625 7.41977V6.3C21.5625 6.21286 21.5373 6.12928 21.4923 6.06766C21.4474 6.00605 21.3865 5.97143 21.3229 5.97143H1.67708C1.61354 5.97143 1.5526 6.00605 1.50767 6.06766C1.46274 6.12928 1.4375 6.21286 1.4375 6.3Z" fill="white"/>
</svg>
