<svg width="17" height="16" viewBox="0 0 17 16" fill="none" xmlns="http://www.w3.org/2000/svg">
<g clip-path="url(#clip0_102_158)">
<path d="M15.5 14C15.5 14 16.5 14 16.5 13C16.5 12 15.5 9 11.5 9C7.5 9 6.5 12 6.5 13C6.5 14 7.5 14 7.5 14H15.5ZM7.522 13C7.51461 12.999 7.50727 12.9976 7.5 12.996C7.501 12.732 7.667 11.966 8.26 11.276C8.812 10.629 9.782 10 11.5 10C13.217 10 14.187 10.63 14.74 11.276C15.333 11.966 15.498 12.733 15.5 12.996L15.492 12.998C15.4874 12.9988 15.4827 12.9995 15.478 13H7.522ZM11.5 7C12.0304 7 12.5391 6.78929 12.9142 6.41421C13.2893 6.03914 13.5 5.53043 13.5 5C13.5 4.46957 13.2893 3.96086 12.9142 3.58579C12.5391 3.21071 12.0304 3 11.5 3C10.9696 3 10.4609 3.21071 10.0858 3.58579C9.71071 3.96086 9.5 4.46957 9.5 5C9.5 5.53043 9.71071 6.03914 10.0858 6.41421C10.4609 6.78929 10.9696 7 11.5 7ZM14.5 5C14.5 5.39397 14.4224 5.78407 14.2716 6.14805C14.1209 6.51203 13.8999 6.84274 13.6213 7.12132C13.3427 7.3999 13.012 7.62087 12.6481 7.77164C12.2841 7.9224 11.894 8 11.5 8C11.106 8 10.7159 7.9224 10.3519 7.77164C9.98797 7.62087 9.65726 7.3999 9.37868 7.12132C9.1001 6.84274 8.87913 6.51203 8.72836 6.14805C8.5776 5.78407 8.5 5.39397 8.5 5C8.5 4.20435 8.81607 3.44129 9.37868 2.87868C9.94129 2.31607 10.7044 2 11.5 2C12.2956 2 13.0587 2.31607 13.6213 2.87868C14.1839 3.44129 14.5 4.20435 14.5 5ZM7.436 9.28C7.03598 9.15404 6.62364 9.07123 6.206 9.033C5.97133 9.01068 5.73573 8.99967 5.5 9C1.5 9 0.5 12 0.5 13C0.5 13.667 0.833 14 1.5 14H5.716C5.56776 13.6878 5.49382 13.3455 5.5 13C5.5 11.99 5.877 10.958 6.59 10.096C6.833 9.802 7.116 9.527 7.436 9.28ZM5.42 10C4.82815 10.8893 4.50844 11.9318 4.5 13H1.5C1.5 12.74 1.664 11.97 2.26 11.276C2.805 10.64 3.752 10.02 5.42 10.001V10ZM2 5.5C2 4.70435 2.31607 3.94129 2.87868 3.37868C3.44129 2.81607 4.20435 2.5 5 2.5C5.79565 2.5 6.55871 2.81607 7.12132 3.37868C7.68393 3.94129 8 4.70435 8 5.5C8 6.29565 7.68393 7.05871 7.12132 7.62132C6.55871 8.18393 5.79565 8.5 5 8.5C4.20435 8.5 3.44129 8.18393 2.87868 7.62132C2.31607 7.05871 2 6.29565 2 5.5ZM5 3.5C4.46957 3.5 3.96086 3.71071 3.58579 4.08579C3.21071 4.46086 3 4.96957 3 5.5C3 6.03043 3.21071 6.53914 3.58579 6.91421C3.96086 7.28929 4.46957 7.5 5 7.5C5.53043 7.5 6.03914 7.28929 6.41421 6.91421C6.78929 6.53914 7 6.03043 7 5.5C7 4.96957 6.78929 4.46086 6.41421 4.08579C6.03914 3.71071 5.53043 3.5 5 3.5Z" fill="white"/>
</g>
<defs>
<clipPath id="clip0_102_158">
<rect width="16" height="16" fill="white" transform="translate(0.5)"/>
</clipPath>
</defs>
</svg>
