<svg width="80" height="80" viewBox="0 0 80 80" fill="none" xmlns="http://www.w3.org/2000/svg">
<g id="skill-icons:instagram" clip-path="url(#clip0_102_49)">
<g id="Group">
<path id="Vector" d="M61.25 0H18.75C8.39466 0 0 8.39466 0 18.75V61.25C0 71.6053 8.39466 80 18.75 80H61.25C71.6053 80 80 71.6053 80 61.25V18.75C80 8.39466 71.6053 0 61.25 0Z" fill="url(#paint0_radial_102_49)"/>
<path id="Vector_2" d="M61.25 0H18.75C8.39466 0 0 8.39466 0 18.75V61.25C0 71.6053 8.39466 80 18.75 80H61.25C71.6053 80 80 71.6053 80 61.25V18.75C80 8.39466 71.6053 0 61.25 0Z" fill="url(#paint1_radial_102_49)"/>
<path id="Vector_3" d="M40.0028 8.75C31.5159 8.75 30.4506 8.78719 27.1175 8.93875C23.7906 9.09125 21.5197 9.61781 19.5328 10.3906C17.4772 11.1888 15.7338 12.2566 13.9969 13.9941C12.2584 15.7312 11.1906 17.4747 10.39 19.5294C9.615 21.5169 9.08781 23.7887 8.93812 27.1141C8.78906 30.4475 8.75 31.5131 8.75 40.0003C8.75 48.4875 8.7875 49.5494 8.93875 52.8825C9.09188 56.2094 9.61844 58.4803 10.3906 60.4672C11.1894 62.5228 12.2572 64.2663 13.9947 66.0031C15.7313 67.7416 17.4747 68.8119 19.5288 69.61C21.5172 70.3828 23.7884 70.9094 27.1147 71.0619C30.4481 71.2134 31.5125 71.2506 39.9991 71.2506C48.4869 71.2506 49.5488 71.2134 52.8819 71.0619C56.2088 70.9094 58.4822 70.3828 60.4706 69.61C62.5253 68.8119 64.2662 67.7416 66.0025 66.0031C67.7409 64.2663 68.8084 62.5228 69.6094 60.4681C70.3775 58.4803 70.905 56.2087 71.0612 52.8831C71.2109 49.55 71.25 48.4875 71.25 40.0003C71.25 31.5131 71.2109 30.4481 71.0612 27.1147C70.905 23.7878 70.3775 21.5172 69.6094 19.5303C68.8084 17.4747 67.7409 15.7312 66.0025 13.9941C64.2644 12.2559 62.5259 11.1881 60.4688 10.3909C58.4766 9.61781 56.2044 9.09094 52.8775 8.93875C49.5441 8.78719 48.4828 8.75 39.9931 8.75H40.0028ZM37.1994 14.3816C38.0316 14.3803 38.96 14.3816 40.0028 14.3816C48.3469 14.3816 49.3356 14.4116 52.6306 14.5613C55.6775 14.7006 57.3312 15.2097 58.4328 15.6375C59.8913 16.2038 60.9309 16.8809 62.0241 17.975C63.1178 19.0688 63.7947 20.1103 64.3625 21.5687C64.7903 22.6687 65.3 24.3225 65.4388 27.3694C65.5884 30.6637 65.6209 31.6531 65.6209 39.9931C65.6209 48.3331 65.5884 49.3228 65.4388 52.6169C65.2994 55.6637 64.7903 57.3175 64.3625 58.4178C63.7963 59.8762 63.1178 60.9147 62.0241 62.0078C60.9303 63.1016 59.8919 63.7784 58.4328 64.345C57.3325 64.7747 55.6775 65.2825 52.6306 65.4219C49.3363 65.5716 48.3469 65.6041 40.0028 65.6041C31.6584 65.6041 30.6694 65.5716 27.3753 65.4219C24.3284 65.2813 22.6747 64.7722 21.5722 64.3444C20.1141 63.7778 19.0722 63.1009 17.9784 62.0072C16.8847 60.9134 16.2078 59.8744 15.64 58.4153C15.2122 57.315 14.7025 55.6612 14.5638 52.6144C14.4141 49.32 14.3841 48.3306 14.3841 39.9853C14.3841 31.6403 14.4141 30.6559 14.5638 27.3616C14.7031 24.3147 15.2122 22.6609 15.64 21.5594C16.2066 20.1009 16.8847 19.0594 17.9788 17.9656C19.0725 16.8719 20.1141 16.1947 21.5725 15.6272C22.6741 15.1975 24.3284 14.6897 27.3753 14.5497C30.2581 14.4194 31.3753 14.3803 37.1994 14.3737V14.3816ZM56.6841 19.5703C54.6138 19.5703 52.9341 21.2484 52.9341 23.3191C52.9341 25.3894 54.6138 27.0691 56.6841 27.0691C58.7544 27.0691 60.4341 25.3894 60.4341 23.3191C60.4341 21.2488 58.7544 19.5691 56.6841 19.5691V19.5703ZM40.0028 23.9519C31.1403 23.9519 23.9547 31.1375 23.9547 40.0003C23.9547 48.8631 31.1403 56.0453 40.0028 56.0453C48.8656 56.0453 56.0488 48.8631 56.0488 40.0003C56.0488 31.1378 48.865 23.9519 40.0022 23.9519H40.0028ZM40.0028 29.5834C45.7556 29.5834 50.4197 34.2469 50.4197 40.0003C50.4197 45.7531 45.7556 50.4172 40.0028 50.4172C34.2497 50.4172 29.5863 45.7531 29.5863 40.0003C29.5863 34.2469 34.2497 29.5834 40.0028 29.5834Z" fill="white"/>
</g>
</g>
<defs>
<radialGradient id="paint0_radial_102_49" cx="0" cy="0" r="1" gradientUnits="userSpaceOnUse" gradientTransform="translate(21.25 86.1616) rotate(-90) scale(79.2859 73.7422)">
<stop stop-color="#FFDD55"/>
<stop offset="0.1" stop-color="#FFDD55"/>
<stop offset="0.5" stop-color="#FF543E"/>
<stop offset="1" stop-color="#C837AB"/>
</radialGradient>
<radialGradient id="paint1_radial_102_49" cx="0" cy="0" r="1" gradientUnits="userSpaceOnUse" gradientTransform="translate(-13.4003 5.76281) rotate(78.681) scale(35.4413 146.09)">
<stop stop-color="#3771C8"/>
<stop offset="0.128" stop-color="#3771C8"/>
<stop offset="1" stop-color="#6600FF" stop-opacity="0"/>
</radialGradient>
<clipPath id="clip0_102_49">
<rect width="80" height="80" fill="white"/>
</clipPath>
</defs>
</svg>
