<svg width="80" height="80" viewBox="0 0 80 80" fill="none" xmlns="http://www.w3.org/2000/svg">
<g id="la:coins">
<path id="Vector" d="M52.5 10C48.0175 10 43.955 10.84 40.78 12.4225C37.6075 14.005 35 16.5825 35 20V30C35 30.3225 35.1075 30.635 35.1575 30.9375C32.6551 30.3016 30.0819 29.9866 27.5 30C23.0175 30 18.955 30.84 15.78 32.4225C12.6075 34.005 10 36.5825 10 40V60C10 63.4175 12.6075 65.995 15.7825 67.5775C18.955 69.16 23.0175 70 27.5 70C31.9825 70 36.045 69.16 39.22 67.5775C42.39 65.995 45 63.4175 45 60V58.985C47.4456 59.6462 49.9666 59.9873 52.5 60C56.9825 60 61.045 59.16 64.22 57.5775C67.39 55.995 70 53.4175 70 50V20C70 16.5825 67.3925 14.005 64.2175 12.4225C61.0475 10.84 56.985 10 52.5 10ZM52.5 15C56.3075 15 59.6975 15.82 61.9525 16.9525C64.21 18.085 65 19.2775 65 20C65 20.725 64.21 21.915 61.9525 23.0475C59.7 24.18 56.3075 25 52.5 25C48.6925 25 45.3025 24.18 43.0475 23.0475C40.79 21.915 40 20.7225 40 20C40 19.275 40.79 18.085 43.0475 16.9525C45.3 15.82 48.6925 15 52.5 15ZM40 27.11C40.2625 27.255 40.5075 27.4425 40.7825 27.5775C43.955 29.16 48.0175 30 52.5 30C56.9825 30 61.045 29.16 64.22 27.5775C64.4925 27.4425 64.7375 27.255 65 27.11V30C65 30.725 64.21 31.915 61.9525 33.0475C59.6975 34.18 56.3075 35 52.5 35C48.6925 35 45.3025 34.18 43.0475 33.0475C40.79 31.915 40 30.7225 40 30V27.11ZM27.5 35C31.3075 35 34.6975 35.82 36.9525 36.9525C39.21 38.085 40 39.2775 40 40C40 40.725 39.21 41.915 36.9525 43.0475C34.6975 44.18 31.3075 45 27.5 45C23.6925 45 20.3025 44.18 18.0475 43.0475C15.79 41.915 15 40.7225 15 40C15 39.275 15.79 38.085 18.0475 36.9525C20.3 35.82 23.6925 35 27.5 35ZM65 37.11V40C65 40.725 64.21 41.915 61.9525 43.0475C59.6975 44.18 56.3075 45 52.5 45C49.9533 45.0138 47.421 44.6179 45 43.8275V40C45 39.6775 44.8925 39.365 44.8425 39.0625C47.1675 39.6675 49.745 40 52.5 40C56.9825 40 61.045 39.16 64.22 37.5775C64.4925 37.4425 64.7375 37.255 65 37.11ZM15 47.11C15.2625 47.255 15.5075 47.4425 15.7825 47.5775C18.955 49.16 23.0175 50 27.5 50C31.9825 50 36.045 49.16 39.22 47.5775C39.4925 47.4425 39.7375 47.255 40 47.11V50C40 50.725 39.21 51.915 36.9525 53.0475C34.6975 54.18 31.3075 55 27.5 55C23.6925 55 20.3025 54.18 18.0475 53.0475C15.79 51.915 15 50.7225 15 50V47.11ZM65 47.11V50C65 50.725 64.21 51.915 61.9525 53.0475C59.6975 54.18 56.3075 55 52.5 55C49.6575 55 47.09 54.6 45 53.905V49.0625C47.295 49.6675 49.795 50 52.5 50C56.9825 50 61.045 49.16 64.22 47.5775C64.4925 47.4425 64.7375 47.255 65 47.11ZM15 57.11C15.2625 57.255 15.5075 57.4425 15.7825 57.5775C18.955 59.16 23.0175 60 27.5 60C31.9825 60 36.045 59.16 39.22 57.5775C39.4925 57.4425 39.7375 57.255 40 57.11V60C40 60.725 39.21 61.915 36.9525 63.0475C34.6975 64.18 31.3075 65 27.5 65C23.6925 65 20.3025 64.18 18.0475 63.0475C15.79 61.915 15 60.7225 15 60V57.11Z" fill="white"/>
</g>
</svg>
