<svg width="80" height="80" viewBox="0 0 80 80" fill="none" xmlns="http://www.w3.org/2000/svg">
<g id="logos:telegram" clip-path="url(#clip0_102_73)">
<path id="Vector" d="M40 0C29.3938 0 19.2125 4.21688 11.7188 11.7156C4.21727 19.2174 0.00207794 29.3911 0 40C0 50.6044 4.21875 60.7856 11.7188 68.2844C19.2125 75.7831 29.3938 80 40 80C50.6063 80 60.7875 75.7831 68.2812 68.2844C75.7812 60.7856 80 50.6044 80 40C80 29.3956 75.7812 19.2144 68.2812 11.7156C60.7875 4.21688 50.6063 0 40 0Z" fill="url(#paint0_linear_102_73)"/>
<path id="Vector_2" d="M18.1062 39.5775C29.7687 34.4975 37.5437 31.1481 41.4312 29.53C52.5437 24.9094 54.85 24.1069 56.3562 24.0797C56.6875 24.0744 57.425 24.1563 57.9062 24.5453C58.3062 24.8734 58.4187 25.3172 58.475 25.6288C58.525 25.94 58.5937 26.6494 58.5375 27.2031C57.9375 33.5281 55.3312 48.8769 54.0062 55.9613C53.45 58.9588 52.3438 59.9637 51.275 60.0619C48.95 60.2756 47.1875 58.5269 44.9375 57.0525C41.4187 54.7444 39.4312 53.3081 36.0125 51.0563C32.0625 48.4538 34.625 47.0231 36.875 44.6856C37.4625 44.0738 47.7 34.7644 47.8937 33.92C47.9187 33.8144 47.9437 33.4206 47.7062 33.2131C47.475 33.005 47.1312 33.0763 46.8812 33.1325C46.525 33.2125 40.9062 36.93 30.0062 44.2844C28.4125 45.3806 26.9687 45.915 25.6687 45.8869C24.2437 45.8563 21.4937 45.0794 19.45 44.4156C16.95 43.6013 14.9562 43.1706 15.1312 41.7875C15.2187 41.0675 16.2125 40.3306 18.1062 39.5775Z" fill="white"/>
</g>
<defs>
<linearGradient id="paint0_linear_102_73" x1="4000" y1="0" x2="4000" y2="8000" gradientUnits="userSpaceOnUse">
<stop stop-color="#2AABEE"/>
<stop offset="1" stop-color="#229ED9"/>
</linearGradient>
<clipPath id="clip0_102_73">
<rect width="80" height="80" fill="white"/>
</clipPath>
</defs>
</svg>
