<svg width="72" height="80" viewBox="0 0 72 80" fill="none" xmlns="http://www.w3.org/2000/svg">
<g id="logos:tiktok-icon" clip-path="url(#clip0_102_95)">
<path id="Vector" d="M53.0262 28.8058C58.1788 32.4872 64.491 34.6532 71.3084 34.6532V21.5415C70.0181 21.5418 68.7313 21.4072 67.469 21.1399V31.4607C60.6521 31.4607 54.3407 29.2949 49.187 25.6138V52.3713C49.187 65.757 38.3302 76.6072 24.9388 76.6072C19.9421 76.6072 15.2977 75.0974 11.4397 72.5079C15.843 77.008 21.9837 79.7994 28.7771 79.7994C42.1697 79.7994 53.0268 68.9492 53.0268 55.563V28.8058H53.0262ZM57.7628 15.5777C55.1294 12.7023 53.4003 8.98648 53.0262 4.87835V3.192H49.3879C50.3037 8.41324 53.4279 12.8739 57.7628 15.5777ZM19.9098 62.2364C18.4386 60.3085 17.6433 57.9498 17.6469 55.5247C17.6469 49.4028 22.6127 44.4389 28.7393 44.4389C29.8809 44.4383 31.0157 44.6135 32.104 44.9583V31.5534C30.8323 31.3793 29.549 31.3051 28.2662 31.3324V41.7661C27.1774 41.421 26.042 41.2459 24.8999 41.2469C18.7735 41.2469 13.808 46.2102 13.808 52.333C13.808 56.6623 16.2899 60.4105 19.9098 62.2364Z" fill="#FF004F"/>
<path id="Vector_2" d="M49.187 25.6135C54.341 29.2946 60.6519 31.4604 67.469 31.4604V21.1396C63.6637 20.3294 60.2952 18.3421 57.7625 15.5777C53.4273 12.8737 50.3037 8.41297 49.3879 3.192H39.8312V55.5625C39.8094 61.6679 34.8521 66.6113 28.7388 66.6113C25.1365 66.6113 21.936 64.8952 19.9092 62.2361C16.2899 60.4105 13.8077 56.6621 13.8077 52.3332C13.8077 46.211 18.7732 41.2472 24.8996 41.2472C26.0734 41.2472 27.2047 41.4298 28.2659 41.7663V31.3327C15.1095 31.6044 4.52882 42.3487 4.52882 55.5628C4.52882 62.1592 7.16358 68.139 11.44 72.5084C15.2979 75.0974 19.9421 76.6077 24.939 76.6077C38.3308 76.6077 49.1873 65.7567 49.1873 52.3713V25.6138L49.187 25.6135Z" fill="#0E0211"/>
<path id="Vector_3" d="M67.469 21.1393V18.3492C64.0375 18.3544 60.6738 17.394 57.7625 15.5777C60.3396 18.3976 63.7331 20.3422 67.469 21.1399V21.1393ZM49.3876 3.19172C49.3003 2.69286 49.2333 2.19065 49.1868 1.68634V0H35.9912V52.371C35.9702 58.4759 31.013 63.4193 24.8993 63.4193C23.1661 63.4219 21.4567 63.0168 19.909 62.2367C21.9357 64.8952 25.1363 66.611 28.7385 66.611C34.8516 66.611 39.8094 61.6681 39.8309 55.5628V3.192H49.3876V3.19172ZM28.2665 31.3324V28.3617C27.1638 28.2109 26.0522 28.1355 24.9393 28.136C11.5462 28.136 0.689651 38.9868 0.689651 52.371C0.689651 60.7625 4.95641 68.1578 11.4403 72.5079C7.16386 68.1388 4.5291 62.1586 4.5291 55.5625C4.5291 42.3487 15.1095 31.6041 28.2665 31.3324Z" fill="#00F2EA"/>
</g>
<defs>
<clipPath id="clip0_102_95">
<rect width="70.6207" height="80" fill="white" transform="translate(0.689651)"/>
</clipPath>
</defs>
</svg>
