<svg width="114" height="72" viewBox="0 0 114 72" fill="none" xmlns="http://www.w3.org/2000/svg">
<path d="M111.377 11.2748C110.724 9.09555 109.451 7.10881 107.685 5.51241C105.918 3.916 103.719 2.76563 101.308 2.17584C92.4784 0 56.9433 0 56.9433 0C56.9433 0 21.4064 0.0658614 12.577 2.2417C10.1653 2.83153 7.96656 3.98196 6.1999 5.57844C4.43323 7.17492 3.16024 9.16174 2.5077 11.341C-0.162965 25.5166 -1.19897 47.1168 2.58103 60.7252C3.23364 62.9044 4.50666 64.8912 6.27332 66.4876C8.03998 68.084 10.2386 69.2344 12.6504 69.8242C21.4797 72 57.0157 72 57.0157 72C57.0157 72 92.5513 72 101.38 69.8242C103.792 69.2344 105.991 68.0841 107.757 66.4877C109.524 64.8913 110.797 62.9045 111.45 60.7252C114.267 46.5296 115.135 24.9427 111.377 11.2748Z" fill="#FF0000"/>
<path d="M44.0331 52.9156L77.6572 35.8409L44.0331 18.7662V52.9156Z" fill="white"/>
</svg>
